<svg width="44" height="57" viewBox="0 0 44 57" fill="none" xmlns="http://www.w3.org/2000/svg">
<path d="M21.9262 3.3201e-05C21.9142 -0.0186494 18.8585 7.84557 10.955 28.2333L0 56.4904L10.977 56.4949C17.0141 56.4979 26.8931 56.4979 32.9301 56.4949L43.9068 56.4904L32.9247 28.2572C26.8873 12.7326 21.9361 0.0164951 21.9276 0.00304359L21.9262 3.3201e-05ZM21.9172 24.7224C21.9232 24.7226 23.8329 29.8211 26.1619 36.0525L30.3964 47.3825L26.1752 47.387C23.8534 47.39 20.055 47.39 17.7338 47.387L13.5154 47.384L17.712 36.0534C20.0202 29.8219 21.9135 24.7233 21.9191 24.7233L21.9172 24.7224Z" fill="#257DC5"/>
</svg>
