<svg width="64" height="64" viewBox="0 0 64 64" fill="none" xmlns="http://www.w3.org/2000/svg">
<path d="M64 0H0V64H64V0Z" fill="white"/>
<path d="M31.9262 3.00003C31.9142 2.98135 28.8585 10.8456 20.955 31.2333L10 59.4904L20.977 59.4949C27.0141 59.4979 36.8931 59.4979 42.9301 59.4949L53.9068 59.4904L42.9247 31.2572C36.8873 15.7326 31.9361 3.0165 31.9276 3.00304L31.9262 3.00003ZM31.9172 27.7224C31.9232 27.7226 33.8329 32.8211 36.1619 39.0525L40.3964 50.3825L36.1752 50.387C33.8534 50.39 30.055 50.39 27.7338 50.387L23.5154 50.384L27.712 39.0534C30.0202 32.8219 31.9135 27.7233 31.9191 27.7233L31.9172 27.7224Z" fill="black"/>
</svg>
