<svg width="581" height="581" viewBox="0 0 581 581" fill="none" xmlns="http://www.w3.org/2000/svg">
<path d="M290.624 0.794307C290.508 0.766328 281.726 5.74626 271.111 11.8633L251.81 22.9861L271.161 23.0359C281.804 23.0657 299.224 23.0657 309.873 23.0359L329.234 22.9861L310.035 11.9171C299.473 5.82804 290.74 0.824079 290.624 0.794307H290.624ZM168.008 39.4414H145.564L134.374 58.837C128.22 69.505 123.212 78.2624 123.244 78.3005C123.278 78.3383 138.283 69.7345 156.586 59.18C174.893 48.6275 190 39.87 190.16 39.7187C190.409 39.4813 187.142 39.4415 168.008 39.4415V39.4414ZM244.122 39.4414H223.378L205.336 49.8202C195.413 55.5283 187.251 60.2389 187.201 60.2909C187.149 60.3407 196.486 60.3826 207.945 60.3826H228.783L246.532 50.1871C256.293 44.5787 264.413 39.866 264.573 39.7164C264.822 39.4831 261.748 39.4412 244.122 39.4412L244.122 39.4414ZM336.918 39.4414C322.4 39.4414 316.234 39.5052 316.379 39.6508C316.495 39.7665 324.615 44.4772 334.424 50.1215L352.259 60.3808H373.091C384.548 60.3828 393.87 60.331 393.807 60.2691C393.743 60.2053 385.585 55.4944 375.678 49.7985L357.63 39.4426L336.918 39.4414ZM413.021 39.4414C394.089 39.4414 390.621 39.4833 390.869 39.7126C391.029 39.8622 406.139 48.6197 424.445 59.1721C442.753 69.7267 457.755 78.3325 457.787 78.2966C457.819 78.2625 452.809 69.5054 446.655 58.8371L435.465 39.4415L413.021 39.4414ZM290.48 43.6397C290.445 43.6458 283.921 47.3932 275.985 51.9664L261.555 60.283L276.035 60.3348C283.999 60.3628 297.036 60.3628 305.008 60.3348L319.504 60.283L305.026 51.9563C297.062 47.3771 290.518 43.6336 290.48 43.6397ZM183.666 76.7448L166.924 76.7548L158.627 91.1544C154.063 99.076 150.344 105.578 150.364 105.606C150.382 105.632 161.595 99.202 175.281 91.3161C188.968 83.4303 200.22 76.9245 200.286 76.8567C200.352 76.7909 192.873 76.741 183.666 76.745L183.666 76.7448ZM397.356 76.7448C388.145 76.7408 380.694 76.8106 380.797 76.9023C380.901 76.994 391.806 83.2945 405.026 90.9051C418.249 98.5158 429.447 104.954 429.912 105.215L430.757 105.688L428.072 101.035C426.594 98.4761 422.847 91.9664 419.745 86.5675L414.103 76.753L397.356 76.7448ZM142.547 86.1264C142.457 86.1343 134.345 90.7752 124.518 96.4374L106.651 106.733L96.3308 124.667C90.653 134.531 86.0408 142.634 86.0807 142.672C86.1185 142.712 94.0904 138.157 103.794 132.553C113.498 126.948 121.627 122.17 121.859 121.936C122.09 121.703 126.84 113.614 132.412 103.961C137.984 94.3081 142.58 86.3423 142.624 86.2605C142.67 86.1787 142.635 86.1189 142.547 86.1269L142.547 86.1264ZM438.504 86.1343C438.384 86.0924 438.328 86.1382 438.382 86.234C438.436 86.3297 443.039 94.3074 448.613 103.96C454.187 113.613 458.895 121.671 459.078 121.866C459.26 122.062 467.391 126.836 477.147 132.476C486.902 138.117 494.914 142.704 494.951 142.666C494.986 142.63 490.37 134.527 484.69 124.66L474.362 106.718L456.543 96.4629C446.744 90.8247 438.626 86.1759 438.504 86.1339L438.504 86.1343ZM78.1868 123.314C78.1509 123.282 69.391 128.292 58.7199 134.445L39.3187 145.632V168.069C39.3187 187.008 39.3606 190.46 39.59 190.213C39.7397 190.053 48.4997 174.948 59.0569 156.647C69.6146 138.346 78.2228 123.346 78.1869 123.314H78.1868ZM503.197 123.447C502.95 123.289 502.749 123.222 502.749 123.293C502.749 123.367 511.379 138.387 521.928 156.674C532.476 174.959 541.23 190.052 541.379 190.212C541.609 190.459 541.651 187.017 541.651 168.06V145.613L522.648 134.673C512.197 128.656 503.445 123.604 503.197 123.447V123.447ZM105.528 150.35C105.49 150.36 98.9788 154.107 91.0545 158.677L76.6508 166.985L76.6407 183.728C76.6368 192.937 76.7085 200.386 76.8003 200.282C76.8921 200.178 83.1943 189.277 90.805 176.06C98.4179 162.841 104.858 151.646 105.119 151.18C105.38 150.713 105.564 150.34 105.528 150.35H105.528ZM480.162 153.074L475.404 150.334L475.884 151.192C476.148 151.662 482.589 162.859 490.197 176.07C497.806 189.283 504.106 200.178 504.197 200.282C504.289 200.385 504.363 192.937 504.359 183.728L504.352 166.985L494.636 161.401C489.292 158.329 482.778 154.582 480.161 153.074L480.162 153.074ZM60.2104 187.227C60.1764 187.227 55.4645 195.37 49.7368 205.322L39.323 223.418V244.153C39.323 258.607 39.3869 264.825 39.5325 264.68C39.6462 264.566 44.3603 256.447 50.0062 246.641L60.2717 228.809V208.017C60.2717 196.582 60.2437 187.226 60.2119 187.226L60.2104 187.227ZM520.815 187.255C520.761 187.203 520.719 196.531 520.719 207.985L520.721 228.811L530.98 246.637C536.623 256.441 541.336 264.558 541.453 264.676C541.605 264.828 541.667 258.876 541.667 244.154V223.417L531.289 205.385C525.581 195.467 520.867 187.31 520.815 187.256L520.815 187.255ZM22.9301 271.189L22.8834 251.84L11.8177 271.034C5.7323 281.591 0.752014 290.369 0.752014 290.537C0.752014 290.709 5.73158 299.482 11.8181 310.037L22.8823 329.227L22.9322 309.883C22.962 299.243 22.962 281.832 22.9322 271.189L22.9301 271.189ZM558.418 252.346L558.024 251.747V329.314L558.397 328.715C558.6 328.386 563.602 319.729 569.509 309.477C575.414 299.224 580.248 290.694 580.248 290.522C580.248 290.351 575.414 281.821 569.509 271.567C563.602 261.316 558.6 252.659 558.397 252.329L558.418 252.346ZM60.2104 276.053L60.1602 261.572L51.825 276.053L43.4935 290.537L51.8265 305.019L60.1595 319.498L60.2114 305.019C60.2394 297.053 60.2394 284.02 60.2114 276.054L60.2104 276.053ZM520.958 261.922C520.731 261.591 520.689 266.138 520.689 290.536C520.689 314.934 520.731 319.481 520.958 319.15C521.106 318.934 524.879 312.407 529.341 304.646L537.455 290.536L529.341 276.425C524.892 268.677 521.125 262.149 520.981 261.934L520.958 261.922ZM39.543 316.399C39.3913 316.248 39.3295 322.199 39.3295 336.921V357.659L49.7074 375.691C55.415 385.609 60.129 393.766 60.1811 393.82C60.2349 393.872 60.2768 384.544 60.2768 373.09L60.2748 352.264L50.0164 334.438C44.3727 324.633 39.6605 316.516 39.5428 316.399L39.543 316.399ZM541.554 316.265C541.503 316.265 541.331 316.467 541.175 316.714C541.019 316.961 536.349 325.061 530.797 334.714L520.703 352.264V373.09C520.703 384.544 520.745 393.872 520.798 393.82C520.85 393.766 525.564 385.609 531.272 375.691L541.65 357.66V336.961C541.65 325.579 541.608 316.266 541.554 316.266L541.554 316.265ZM76.7875 380.797C76.6957 380.693 76.6239 388.142 76.6279 397.35L76.6358 414.093L86.531 419.777C91.9735 422.902 98.483 426.646 100.999 428.096L105.571 430.731L105.096 429.879C104.835 429.412 98.3953 418.22 90.7886 405.009C83.1796 391.796 76.8796 380.9 76.7878 380.797L76.7875 380.797ZM504.274 380.687C504.236 380.687 497.758 391.884 489.876 405.567C481.994 419.251 475.512 430.513 475.47 430.591C475.431 430.67 477.533 429.504 480.145 427.998C482.758 426.494 489.268 422.749 494.612 419.678L504.328 414.093L504.335 397.39C504.338 388.204 504.31 380.687 504.275 380.687H504.274ZM39.6147 390.874C39.3853 390.627 39.3434 394.067 39.3434 413.018V435.455L58.7446 446.642C69.4156 452.795 78.1756 457.803 78.2115 457.771C78.2474 457.738 69.6392 442.741 59.0816 424.44C48.5239 406.14 39.7643 391.034 39.6147 390.874H39.6147ZM541.59 390.667C541.538 390.667 541.367 390.868 541.209 391.115C541.052 391.363 532.335 406.448 521.838 424.64C511.34 442.831 502.782 457.741 502.817 457.775C502.853 457.807 511.613 452.803 522.284 446.652L541.686 435.471V413.068C541.686 400.749 541.644 390.667 541.59 390.667H541.59ZM86.4395 438.554C86.1721 438.412 86.0006 438.393 86.0405 438.506C86.0824 438.618 90.7326 446.731 96.3785 456.535L106.641 474.36L124.584 484.679C134.451 490.355 142.554 494.968 142.591 494.932C142.629 494.896 138.04 486.887 132.396 477.136C126.753 467.383 121.976 459.254 121.781 459.071C121.585 458.885 113.661 454.25 104.169 448.77C94.6788 443.287 86.701 438.69 86.4395 438.554V438.554ZM494.945 438.426C494.909 438.391 486.901 442.976 477.147 448.616C467.394 454.256 459.29 458.993 459.139 459.144C458.987 459.296 454.249 467.395 448.607 477.142C442.968 486.89 438.385 494.898 438.425 494.938C438.463 494.978 446.566 490.366 456.43 484.691L474.363 474.372L484.687 456.43C490.365 446.564 494.981 438.46 494.945 438.426H494.945ZM150.43 475.474C150.34 475.438 151.475 477.502 152.951 480.061C154.43 482.62 158.176 489.129 161.278 494.528L166.92 504.343L183.668 504.35C192.903 504.354 200.33 504.282 200.226 504.189C200.123 504.095 188.911 497.611 175.315 489.779C161.717 481.947 150.519 475.509 150.43 475.473L150.43 475.474ZM430.693 475.441C430.671 475.441 419.443 481.899 405.743 489.791C392.044 497.685 380.786 504.191 380.724 504.251C380.664 504.31 388.15 504.356 397.357 504.352L414.099 504.345L419.741 494.531C422.843 489.132 426.585 482.63 428.058 480.079C429.53 477.528 430.717 475.442 430.693 475.442L430.693 475.441ZM123.318 502.795C123.196 502.753 123.352 503.162 123.663 503.7C123.972 504.239 129.026 513 134.891 523.167L145.556 541.656H167.958C180.281 541.656 190.358 541.588 190.352 541.506C190.348 541.424 175.313 532.697 156.942 522.112C138.572 511.528 123.442 502.834 123.318 502.795L123.318 502.795ZM457.743 502.773C457.659 502.78 442.609 511.433 424.299 522.005C405.988 532.576 390.911 541.321 390.794 541.439C390.64 541.592 397.006 541.654 413.022 541.654H435.463L446.129 523.166C451.994 512.998 457.041 504.247 457.344 503.72C457.648 503.194 457.827 502.767 457.743 502.773ZM207.94 520.713C196.48 520.713 187.144 520.755 187.196 520.805C187.246 520.857 195.407 525.567 205.33 531.275L223.373 541.654H244.117C261.743 541.654 264.817 541.612 264.568 541.379C264.408 541.229 256.288 536.517 246.527 530.908L228.778 520.713H207.94ZM290.506 520.713C266.193 520.713 261.556 520.756 261.888 520.98C262.103 521.127 268.635 524.899 276.401 529.364L290.52 537.48L304.83 529.263C312.698 524.743 319.223 520.972 319.327 520.88C319.431 520.788 306.461 520.713 290.506 520.713ZM373.086 520.715H352.254L334.419 530.974C324.61 536.618 316.49 541.329 316.374 541.445C316.229 541.59 322.395 541.654 336.913 541.654H357.66L375.673 531.297C385.58 525.601 393.738 520.891 393.802 520.827C393.865 520.765 384.543 520.713 373.086 520.715V520.715ZM290.488 558.02C269.165 558.02 251.754 558.056 251.801 558.098C251.847 558.142 260.401 563.084 270.809 569.083C281.219 575.08 289.927 580.074 290.16 580.182C290.525 580.348 293.404 578.754 309.839 569.28C320.428 563.18 329.129 558.15 329.174 558.104C329.22 558.058 311.81 558.02 290.488 558.02Z" fill="#E4E9ED"/>
<path d="M105.921 276.37C105.921 283.957 109.957 287.992 117.546 287.992H126.588C134.096 287.992 138.213 283.957 138.213 276.37V257.969C138.213 257.081 137.729 256.677 136.922 256.677H123.843C122.955 256.677 122.551 257.081 122.551 257.969V266.039C122.551 266.847 122.955 267.331 123.843 267.331H128.041V274.353C128.041 276.532 126.911 277.581 124.812 277.581H119.645C117.546 277.581 116.416 276.532 116.416 274.353V245.136C116.416 243.037 117.465 241.908 119.645 241.908H124.812C126.911 241.908 128.041 243.037 128.041 245.136V249.091C128.041 249.898 128.445 250.382 129.333 250.382H136.922C137.729 250.382 138.213 249.898 138.213 249.091V243.118C138.213 235.531 134.096 231.496 126.588 231.496H117.546C109.957 231.496 105.921 235.531 105.921 243.118V276.37Z" fill="#257DC5"/>
<path d="M180.747 232.787C180.747 231.98 180.424 231.496 179.456 231.496H149.746C149.019 231.496 148.535 231.98 148.535 232.787V286.701C148.535 287.508 149.019 287.992 149.746 287.992H179.456C180.424 287.992 180.747 287.508 180.747 286.701V278.63C180.747 277.742 180.424 277.339 179.456 277.339H159.515V265.394H174.692C175.5 265.394 175.984 264.91 175.984 264.022V256.032C175.984 255.144 175.5 254.66 174.692 254.66H159.515V242.23H179.456C180.424 242.23 180.747 241.665 180.747 240.858V232.787Z" fill="#257DC5"/>
<path d="M216.569 231.502C215.681 231.502 215.277 231.986 215.277 232.793V263.388L200.102 232.554C199.779 231.828 199.376 231.505 198.649 231.505H192.271C191.464 231.505 190.979 231.989 190.979 232.796V286.71C190.979 287.517 191.464 288.001 192.271 288.001H199.86C200.748 288.001 201.152 287.517 201.152 286.71V256.13L216.329 286.961C216.652 287.687 217.056 288.01 217.783 288.01H224.16C224.968 288.01 225.452 287.526 225.452 286.719V232.805C225.452 231.998 224.968 231.514 224.16 231.514L216.569 231.502Z" fill="#257DC5"/>
<path d="M268.013 232.787C268.013 231.98 267.69 231.496 266.721 231.496H237.012C236.285 231.496 235.801 231.98 235.801 232.787V286.701C235.801 287.508 236.285 287.992 237.012 287.992H266.721C267.69 287.992 268.013 287.508 268.013 286.701V278.63C268.013 277.742 267.69 277.339 266.721 277.339H246.78V265.394H261.958C262.765 265.394 263.25 264.91 263.25 264.022V256.032C263.25 255.144 262.765 254.66 261.958 254.66H246.78V242.23H266.721C267.69 242.23 268.013 241.665 268.013 240.858V232.787Z" fill="#257DC5"/>
<path d="M309.754 243.13C309.754 235.543 305.718 231.508 298.129 231.508H278.753C277.946 231.508 277.462 231.992 277.462 232.799V286.713C277.462 287.52 277.946 288.004 278.753 288.004H286.665C287.472 288.004 287.957 287.52 287.957 286.713V270.975H295.142L299.017 286.874C299.179 287.601 299.582 288.004 300.39 288.004H308.301C309.189 288.004 309.674 287.52 309.432 286.552L305.233 269.199C308.221 267.343 309.754 264.034 309.754 259.353V243.13ZM287.957 260.563V241.919H296.03C298.129 241.919 299.259 243.049 299.259 245.148V257.335C299.259 259.433 298.129 260.563 296.03 260.563H287.957Z" fill="#257DC5"/>
<path d="M380.485 277.342H396.47C397.358 277.342 397.762 277.826 397.762 278.633V286.704C397.762 287.592 397.358 287.995 396.47 287.995H370.797C369.99 287.995 369.505 287.592 369.505 286.704V232.79C369.505 231.983 369.99 231.499 370.797 231.499H379.193C380.081 231.499 380.485 231.983 380.485 232.79V277.342Z" fill="#257DC5"/>
<path d="M418.997 277.342H434.982C435.87 277.342 436.274 277.826 436.274 278.633V286.704C436.274 287.592 435.87 287.995 434.982 287.995H409.309C408.502 287.995 408.018 287.592 408.018 286.704V232.79C408.018 231.983 408.502 231.499 409.309 231.499H417.706C418.594 231.499 418.997 231.983 418.997 232.79V277.342Z" fill="#257DC5"/>
<path d="M465 231.502C464.031 231.502 463.466 231.986 463.143 232.793L454.101 253.536L445.059 232.793C444.736 231.986 444.171 231.502 443.202 231.502H435.129C433.918 231.502 433.353 232.309 433.837 233.358L448.611 266.853V286.384C448.611 287.433 449.176 287.998 450.226 287.998H457.976C459.026 287.998 459.591 287.433 459.591 286.384V266.853L474.365 233.358C474.849 232.309 474.284 231.502 473.073 231.502H465Z" fill="#257DC5"/>
<path d="M89.2358 350.144C88.3477 350.144 87.9441 349.66 87.9441 348.853V294.939C87.9441 294.132 88.3477 293.648 89.2358 293.648H97.6319C98.4393 293.648 98.9237 294.132 98.9237 294.939V348.853C98.9237 349.66 98.4393 350.144 97.6319 350.144H89.2358Z" fill="#257DC5"/>
<path d="M134.85 293.648C133.962 293.648 133.558 294.132 133.558 294.939V325.534L118.383 294.7C118.06 293.974 117.657 293.651 116.93 293.651H110.552C109.745 293.651 109.26 294.135 109.26 294.942V348.856C109.26 349.663 109.745 350.147 110.552 350.147H118.141C119.029 350.147 119.433 349.663 119.433 348.856V318.276L134.61 349.107C134.933 349.834 135.337 350.156 136.064 350.156H142.441C143.249 350.156 143.733 349.672 143.733 348.865V294.951C143.733 294.144 143.249 293.66 142.441 293.66L134.85 293.648Z" fill="#257DC5"/>
<path d="M183.468 293.648C184.356 293.648 184.76 294.132 184.76 294.939V303.01C184.76 303.817 184.356 304.302 183.468 304.302H174.103V348.853C174.103 349.741 173.7 350.144 172.812 350.144H164.415C163.608 350.144 163.124 349.741 163.124 348.853V304.302H153.759C152.951 304.302 152.467 303.817 152.467 303.01V294.939C152.467 294.132 152.951 293.648 153.759 293.648H183.468Z" fill="#257DC5"/>
<path d="M225.748 294.933C225.748 294.126 225.425 293.642 224.456 293.642H194.747C194.02 293.642 193.536 294.126 193.536 294.933V348.847C193.536 349.654 194.02 350.138 194.747 350.138H224.456C225.425 350.138 225.748 349.654 225.748 348.847V340.776C225.748 339.888 225.425 339.485 224.456 339.485H204.516V327.54H219.693C220.501 327.54 220.985 327.056 220.985 326.168V318.178C220.985 317.29 220.501 316.805 219.693 316.805H204.516V304.376H224.456C225.425 304.376 225.748 303.811 225.748 303.004V294.933Z" fill="#257DC5"/>
<path d="M246.963 339.488H262.948C263.836 339.488 264.239 339.972 264.239 340.779V348.85C264.239 349.738 263.836 350.141 262.948 350.141H237.275C236.468 350.141 235.983 349.738 235.983 348.85V294.936C235.983 294.129 236.468 293.645 237.275 293.645H245.671C246.559 293.645 246.963 294.129 246.963 294.936V339.488Z" fill="#257DC5"/>
<path d="M285.475 339.488H301.46C302.348 339.488 302.752 339.972 302.752 340.779V348.85C302.752 349.738 302.348 350.141 301.46 350.141H275.787C274.98 350.141 274.495 349.738 274.495 348.85V294.936C274.495 294.129 274.98 293.645 275.787 293.645H284.183C285.071 293.645 285.475 294.129 285.475 294.936V339.488Z" fill="#257DC5"/>
<path d="M311.937 350.144C311.049 350.144 310.646 349.66 310.646 348.853V294.939C310.646 294.132 311.049 293.648 311.937 293.648H320.333C321.141 293.648 321.625 294.132 321.625 294.939V348.853C321.625 349.66 321.141 350.144 320.333 350.144H311.937Z" fill="#257DC5"/>
<path d="M331.956 338.516C331.956 346.103 335.992 350.138 343.581 350.138H352.623C360.131 350.138 364.249 346.103 364.249 338.516V320.115C364.249 319.227 363.764 318.823 362.957 318.823H349.878C348.99 318.823 348.587 319.227 348.587 320.115V328.185C348.587 328.993 348.99 329.477 349.878 329.477H354.076V336.498C354.076 338.678 352.946 339.727 350.847 339.727H345.68C343.581 339.727 342.451 338.678 342.451 336.498V307.282C342.451 305.183 343.501 304.053 345.68 304.053H350.847C352.946 304.053 354.076 305.183 354.076 307.282V311.237C354.076 312.044 354.48 312.528 355.368 312.528H362.957C363.764 312.528 364.249 312.044 364.249 311.237V305.264C364.249 297.677 360.131 293.642 352.623 293.642H343.581C335.993 293.642 331.956 297.677 331.956 305.264L331.956 338.516Z" fill="#257DC5"/>
<path d="M406.783 294.933C406.783 294.126 406.46 293.642 405.491 293.642H375.782C375.055 293.642 374.571 294.126 374.571 294.933V348.847C374.571 349.654 375.055 350.138 375.782 350.138H405.491C406.46 350.138 406.783 349.654 406.783 348.847V340.776C406.783 339.888 406.46 339.485 405.491 339.485H385.55V327.54H400.728C401.535 327.54 402.02 327.056 402.02 326.168V318.178C402.02 317.29 401.535 316.805 400.728 316.805H385.55V304.376H405.491C406.46 304.376 406.783 303.811 406.783 303.004V294.933Z" fill="#257DC5"/>
<path d="M442.619 293.648C441.731 293.648 441.327 294.132 441.327 294.939V325.528L426.149 294.697C425.827 293.971 425.423 293.648 424.696 293.648H418.318C417.511 293.648 417.027 294.132 417.027 294.939V348.853C417.027 349.66 417.511 350.144 418.318 350.144H425.907C426.795 350.144 427.199 349.66 427.199 348.853V318.273L442.377 349.104C442.7 349.831 443.103 350.153 443.83 350.153H450.208C451.015 350.153 451.499 349.669 451.499 348.862V294.948C451.499 294.141 451.015 293.657 450.208 293.657L442.619 293.648Z" fill="#257DC5"/>
<path d="M491.223 293.648C492.111 293.648 492.514 294.132 492.514 294.939V303.01C492.514 303.817 492.111 304.302 491.223 304.302H481.858V348.853C481.858 349.741 481.454 350.144 480.566 350.144H472.17C471.362 350.144 470.878 349.741 470.878 348.853V304.302H461.513C460.706 304.302 460.221 303.817 460.221 303.01V294.939C460.221 294.132 460.706 293.648 461.513 293.648H491.223Z" fill="#257DC5"/>
<path d="M337.876 231.726C337.864 231.708 334.809 239.572 326.905 259.959L315.95 288.217L326.927 288.221C332.964 288.224 342.843 288.224 348.88 288.221L359.857 288.217L348.875 259.983C342.837 244.459 337.886 231.743 337.878 231.729L337.876 231.726ZM337.867 256.449C337.873 256.449 339.783 261.547 342.112 267.779L346.346 279.109L342.125 279.113C339.803 279.116 336.005 279.116 333.684 279.113L329.465 279.11L333.662 267.78C335.97 261.548 337.864 256.449 337.869 256.449L337.867 256.449Z" fill="black"/>
</svg>
