<svg width="408" height="119" viewBox="0 0 408 119" fill="none" xmlns="http://www.w3.org/2000/svg">
<path d="M0.97644 44.8742C0.97644 52.4609 5.01305 56.4963 12.6019 56.4963H21.6439C29.152 56.4963 33.2693 52.4609 33.2693 44.8742V26.4726C33.2693 25.5848 32.7849 25.1812 31.9776 25.1812H18.899C18.0109 25.1812 17.6073 25.5848 17.6073 26.4726V34.5435C17.6073 35.3506 18.0109 35.8348 18.899 35.8348H23.097V42.8565C23.097 45.0357 21.9668 46.0849 19.8677 46.0849H14.7009C12.6019 46.0849 11.4716 45.0357 11.4716 42.8565V13.6398C11.4716 11.5414 12.5211 10.4115 14.7009 10.4115H19.8677C21.9668 10.4115 23.097 11.5414 23.097 13.6398V17.5946C23.097 18.4017 23.5007 18.8859 24.3888 18.8859H31.9776C32.7849 18.8859 33.2693 18.4017 33.2693 17.5946V11.6221C33.2693 4.03545 29.152 0 21.6439 0H12.6019C5.01305 0 0.97644 4.03545 0.97644 11.6221V44.8742Z" fill="#292929"/>
<path d="M75.8032 1.29136C75.8032 0.484275 75.4803 0 74.5115 0H44.802C44.0754 0 43.591 0.484275 43.591 1.29136V55.205C43.591 56.0121 44.0754 56.4963 44.802 56.4963H74.5115C75.4803 56.4963 75.8032 56.0121 75.8032 55.205V47.1341C75.8032 46.2463 75.4803 45.8427 74.5115 45.8427H54.5706V33.8978H69.7483C70.5556 33.8978 71.04 33.4135 71.04 32.5257V24.5355C71.04 23.6477 70.5556 23.1635 69.7483 23.1635H54.5706V10.7343H74.5115C75.4803 10.7343 75.8032 10.1693 75.8032 9.36226V1.29136Z" fill="#292929"/>
<path d="M111.624 0.00598145C110.736 0.00598145 110.333 0.490256 110.333 1.29735V31.8921L95.1581 1.0582C94.8351 0.331822 94.4315 0.00899183 93.7049 0.00899183H87.327C86.5197 0.00899183 86.0353 0.493221 86.0353 1.30031V55.214C86.0353 56.0211 86.5197 56.5053 87.327 56.5053H94.9158C95.8039 56.5053 96.2076 56.0211 96.2076 55.214V24.6342L111.385 55.4651C111.708 56.1914 112.112 56.5143 112.838 56.5143H119.216C120.024 56.5143 120.508 56.03 120.508 55.2229V1.3093C120.508 0.502207 120.024 0.0179318 119.216 0.0179318L111.624 0.00598145Z" fill="#292929"/>
<path d="M163.069 1.29136C163.069 0.484275 162.746 0 161.777 0H132.068C131.341 0 130.857 0.484275 130.857 1.29136V55.205C130.857 56.0121 131.341 56.4963 132.068 56.4963H161.777C162.746 56.4963 163.069 56.0121 163.069 55.205V47.1341C163.069 46.2463 162.746 45.8427 161.777 45.8427H141.836V33.8978H157.014C157.821 33.8978 158.306 33.4135 158.306 32.5257V24.5355C158.306 23.6477 157.821 23.1635 157.014 23.1635H141.836V10.7343H161.777C162.746 10.7343 163.069 10.1693 163.069 9.36226V1.29136Z" fill="#292929"/>
<path d="M204.81 11.6341C204.81 4.04742 200.774 0.0119629 193.185 0.0119629H173.809C173.002 0.0119629 172.518 0.496238 172.518 1.30333V55.217C172.518 56.0241 173.002 56.5083 173.809 56.5083H181.721C182.528 56.5083 183.013 56.0241 183.013 55.217V39.4787H190.198L194.073 55.3784C194.234 56.1048 194.638 56.5083 195.445 56.5083H203.357C204.245 56.5083 204.73 56.0241 204.487 55.0555L200.289 37.7031C203.276 35.8468 204.81 32.5377 204.81 27.8566V11.6341ZM183.013 29.0672V10.4234H191.086C193.185 10.4234 194.315 11.5534 194.315 13.6518V25.8389C194.315 27.9373 193.185 29.0672 191.086 29.0672H183.013Z" fill="#292929"/>
<path d="M275.541 45.8458H291.526C292.414 45.8458 292.817 46.33 292.817 47.1371V55.208C292.817 56.0958 292.414 56.4993 291.526 56.4993H265.853C265.046 56.4993 264.561 56.0958 264.561 55.208V1.29437C264.561 0.487281 265.046 0.00305176 265.853 0.00305176H274.249C275.137 0.00305176 275.541 0.487281 275.541 1.29437V45.8458Z" fill="#292929"/>
<path d="M314.053 45.8458H330.038C330.926 45.8458 331.33 46.33 331.33 47.1371V55.208C331.33 56.0958 330.926 56.4993 330.038 56.4993H304.365C303.558 56.4993 303.074 56.0958 303.074 55.208V1.29437C303.074 0.487281 303.558 0.00305176 304.365 0.00305176H312.761C313.649 0.00305176 314.053 0.487281 314.053 1.29437V45.8458Z" fill="#292929"/>
<path d="M360.056 0.00598145C359.087 0.00598145 358.522 0.490256 358.199 1.29735L349.157 22.0396L340.115 1.29735C339.792 0.490256 339.227 0.00598145 338.258 0.00598145H330.185C328.974 0.00598145 328.409 0.813078 328.893 1.8623L343.667 35.3566V54.8881C343.667 55.9373 344.232 56.5023 345.282 56.5023H353.032C354.081 56.5023 354.646 55.9373 354.646 54.8881V35.3566L369.421 1.8623C369.905 0.813078 369.34 0.00598145 368.129 0.00598145H360.056Z" fill="#292929"/>
<path d="M4.29169 118.648C3.40364 118.648 3 118.164 3 117.357V63.4434C3 62.6363 3.40364 62.152 4.29169 62.152H12.6878C13.4952 62.152 13.9796 62.6363 13.9796 63.4434V117.357C13.9796 118.164 13.4952 118.648 12.6878 118.648H4.29169Z" fill="#292929"/>
<path d="M49.9055 62.152C49.0174 62.152 48.6137 62.6363 48.6137 63.4434V94.0381L33.4391 63.2042C33.1161 62.4778 32.7124 62.155 31.9859 62.155H25.608C24.8007 62.155 24.3163 62.6393 24.3163 63.4464V117.36C24.3163 118.167 24.8007 118.651 25.608 118.651H33.1968C34.0849 118.651 34.4886 118.167 34.4886 117.36V86.7803L49.6663 117.611C49.9892 118.338 50.3929 118.66 51.1195 118.66H57.4973C58.3046 118.66 58.789 118.176 58.789 117.369V63.4553C58.789 62.6482 58.3046 62.164 57.4973 62.164L49.9055 62.152Z" fill="#292929"/>
<path d="M98.5242 62.152C99.4122 62.152 99.8159 62.6363 99.8159 63.4434V71.5143C99.8159 72.3214 99.4122 72.8056 98.5242 72.8056H89.1592V117.357C89.1592 118.245 88.7556 118.648 87.8675 118.648H79.4714C78.6641 118.648 78.1797 118.245 78.1797 117.357V72.8056H68.8147C68.0074 72.8056 67.523 72.3214 67.523 71.5143V63.4434C67.523 62.6363 68.0074 62.152 68.8147 62.152H98.5242Z" fill="#292929"/>
<path d="M140.804 63.4373C140.804 62.6302 140.481 62.1459 139.512 62.1459H109.803C109.076 62.1459 108.592 62.6302 108.592 63.4373V117.351C108.592 118.158 109.076 118.642 109.803 118.642H139.512C140.481 118.642 140.804 118.158 140.804 117.351V109.28C140.804 108.392 140.481 107.989 139.512 107.989H119.571V96.0438H134.749C135.556 96.0438 136.041 95.5595 136.041 94.6717V86.6815C136.041 85.7937 135.556 85.3094 134.749 85.3094H119.571V72.8802H139.512C140.481 72.8802 140.804 72.3153 140.804 71.5082V63.4373Z" fill="#292929"/>
<path d="M162.019 107.992H178.004C178.892 107.992 179.295 108.476 179.295 109.283V117.354C179.295 118.242 178.892 118.645 178.004 118.645H152.331C151.523 118.645 151.039 118.242 151.039 117.354V63.4404C151.039 62.6333 151.523 62.149 152.331 62.149H160.727C161.615 62.149 162.019 62.6333 162.019 63.4404V107.992Z" fill="#292929"/>
<path d="M200.531 107.992H216.516C217.404 107.992 217.808 108.476 217.808 109.283V117.354C217.808 118.242 217.404 118.645 216.516 118.645H190.843C190.036 118.645 189.551 118.242 189.551 117.354V63.4404C189.551 62.6333 190.036 62.149 190.843 62.149H199.239C200.127 62.149 200.531 62.6333 200.531 63.4404V107.992Z" fill="#292929"/>
<path d="M226.993 118.648C226.105 118.648 225.701 118.164 225.701 117.357V63.4434C225.701 62.6363 226.105 62.152 226.993 62.152H235.389C236.197 62.152 236.681 62.6363 236.681 63.4434V117.357C236.681 118.164 236.197 118.648 235.389 118.648H226.993Z" fill="#292929"/>
<path d="M247.012 107.02C247.012 114.607 251.048 118.642 258.637 118.642H267.679C275.187 118.642 279.305 114.607 279.305 107.02V88.6185C279.305 87.7307 278.82 87.3272 278.013 87.3272H264.934C264.046 87.3272 263.643 87.7307 263.643 88.6185V96.6894C263.643 97.4965 264.046 97.9808 264.934 97.9808H269.132V105.002C269.132 107.182 268.002 108.231 265.903 108.231H260.736C258.637 108.231 257.507 107.182 257.507 105.002V75.7858C257.507 73.6873 258.556 72.5574 260.736 72.5574H265.903C268.002 72.5574 269.132 73.6873 269.132 75.7858V79.7405C269.132 80.5476 269.536 81.0319 270.424 81.0319H278.013C278.82 81.0319 279.305 80.5476 279.305 79.7405V73.768C279.305 66.1814 275.187 62.1459 267.679 62.1459H258.637C251.048 62.1459 247.012 66.1814 247.012 73.768L247.012 107.02Z" fill="#292929"/>
<path d="M321.839 63.4373C321.839 62.6302 321.516 62.1459 320.547 62.1459H290.837C290.111 62.1459 289.626 62.6302 289.626 63.4373V117.351C289.626 118.158 290.111 118.642 290.837 118.642H320.547C321.516 118.642 321.839 118.158 321.839 117.351V109.28C321.839 108.392 321.516 107.989 320.547 107.989H300.606V96.0438H315.784C316.591 96.0438 317.075 95.5595 317.075 94.6717V86.6815C317.075 85.7937 316.591 85.3094 315.784 85.3094H300.606V72.8802H320.547C321.516 72.8802 321.839 72.3153 321.839 71.5082V63.4373Z" fill="#292929"/>
<path d="M357.675 62.152C356.787 62.152 356.383 62.6363 356.383 63.4434V94.0321L341.205 63.2013C340.882 62.4749 340.479 62.152 339.752 62.152H333.374C332.567 62.152 332.083 62.6363 332.083 63.4434V117.357C332.083 118.164 332.567 118.648 333.374 118.648H340.963C341.851 118.648 342.255 118.164 342.255 117.357V86.7772L357.433 117.608C357.756 118.334 358.159 118.657 358.886 118.657H365.264C366.071 118.657 366.555 118.173 366.555 117.366V63.4523C366.555 62.6453 366.071 62.161 365.264 62.161L357.675 62.152Z" fill="#292929"/>
<path d="M406.279 62.152C407.167 62.152 407.57 62.6363 407.57 63.4434V71.5143C407.57 72.3214 407.167 72.8056 406.279 72.8056H396.914V117.357C396.914 118.245 396.51 118.648 395.622 118.648H387.226C386.418 118.648 385.934 118.245 385.934 117.357V72.8056H376.569C375.762 72.8056 375.277 72.3214 375.277 71.5143V63.4434C375.277 62.6363 375.762 62.152 376.569 62.152H406.279Z" fill="#292929"/>
<path d="M232.932 0.230197C232.92 0.211514 229.864 8.07574 221.961 28.4634L211.006 56.7206L221.983 56.7251C228.02 56.728 237.899 56.728 243.936 56.7251L254.913 56.7206L243.931 28.4873C237.893 12.9628 232.942 0.246659 232.934 0.233207L232.932 0.230197ZM232.923 24.9526C232.929 24.9528 234.839 30.0513 237.168 36.2826L241.402 47.6127L237.181 47.6172C234.859 47.6202 231.061 47.6202 228.74 47.6172L224.521 47.6142L228.718 36.2836C231.026 30.0521 232.919 24.9535 232.925 24.9535L232.923 24.9526Z" fill="#257DC5"/>
</svg>
